<?xml version="1.0" encoding="UTF-8" standalone="no"?>
<svg
   width="64"
   height="64"
   viewBox="0 0 64 64"
   version="1.1"
   id="svg1"
   sodipodi:docname="auto_clear.svg"
   xml:space="preserve"
   inkscape:version="1.4.2 (ebf0e940d0, 2025-05-08)"
   xmlns:inkscape="http://www.inkscape.org/namespaces/inkscape"
   xmlns:sodipodi="http://sodipodi.sourceforge.net/DTD/sodipodi-0.dtd"
   xmlns="http://www.w3.org/2000/svg"
   xmlns:svg="http://www.w3.org/2000/svg"><defs
     id="defs1"><style
       type="text/css"
       id="current-color-scheme">
      .ColorScheme-Text {
        color:#232629;
      }
      </style></defs><sodipodi:namedview
     id="namedview1"
     pagecolor="#ffffff"
     bordercolor="#000000"
     borderopacity="0.25"
     inkscape:showpageshadow="2"
     inkscape:pageopacity="0.0"
     inkscape:pagecheckerboard="0"
     inkscape:deskcolor="#d1d1d1"
     inkscape:zoom="5.5850387"
     inkscape:cx="-21.844074"
     inkscape:cy="1.5219232"
     inkscape:window-width="2259"
     inkscape:window-height="1213"
     inkscape:window-x="0"
     inkscape:window-y="0"
     inkscape:window-maximized="1"
     inkscape:current-layer="svg1" /><g
     id="g3"
     transform="translate(-1.1638239,-1.3580998)"><path
       fill-rule="nonzero"
       fill="#232629"
       fill-opacity="1"
       d="M 45.032714,3.2455993 36.325683,18.761224 29.884277,14.933099 27.157714,19.51513 42.228027,28.476068 44.950683,23.886224 38.618652,20.120599 47.356933,4.5463803 Z M 16.860839,11.897943 c -1.472656,0 -2.664062,1.191406 -2.664062,2.664062 0,1.472657 1.191406,2.667969 2.664062,2.667969 1.472657,0 2.667969,-1.195312 2.667969,-2.667969 0,-1.472656 -1.195312,-2.664062 -2.667969,-2.664062 z m -9.3320319,2.664062 c -0.738281,0 -1.332031,0.597657 -1.332031,1.335938 0,0.734375 0.59375,1.332031 1.332031,1.332031 0.738281,0 1.3320306,-0.597656 1.3320306,-1.332031 0,-0.738281 -0.5937496,-1.335938 -1.3320306,-1.335938 z m 4.0000009,5.335938 c -1.472658,0 -2.6679703,1.191406 -2.6679703,2.664062 0,1.472657 1.1953123,2.667969 2.6679703,2.667969 1.472656,0 2.667969,-1.195312 2.667969,-2.667969 0,-1.472656 -1.195313,-2.664062 -2.667969,-2.664062 z m 13.332031,2.664062 c -2.980469,4.171875 -8.4375,7.496094 -18.6640629,8 v 2.667969 C 11.833496,42.222162 19.528808,46.562005 30.196777,46.562005 h 2.664062 c 3.496094,-4.230469 6.289063,-8.085937 8,-13.332031 v -2.667969 l -13.332031,-8 z m 1.414063,2.9375 11.539062,6.929688 c -1.527344,4.125 -3.925781,7.742187 -6.890625,11.382812 C 22.196777,43.897945 14.337402,40.003412 9.7319312,32.776849 18.048339,31.948724 23.118652,29.351068 26.274902,25.499505 Z m 0,0"
       id="path1" /><g
       id="g2"
       transform="matrix(1.122684,0,0,1.122684,-9.4467394,-7.5989568)"><path
         id="path2"
         style="fill:#ffffff;stroke-width:1.05612;stroke-linecap:square"
         d="M 60.483817,48.70887 A 13.103858,13.103858 0 0 1 47.379959,61.812728 13.103858,13.103858 0 0 1 34.276101,48.70887 13.103858,13.103858 0 0 1 47.379959,35.605012 13.103858,13.103858 0 0 1 60.483817,48.70887 Z" /><path
         style="fill:#3daee9;fill-opacity:1;stroke:none;stroke-width:2.43239"
         d="m 47.379961,34.114482 c -8.060258,0 -14.594389,6.534129 -14.594389,14.594389 0,8.060258 6.534131,14.594389 14.594389,14.594389 8.060258,0 14.594389,-6.534131 14.594389,-14.594389 0,-8.06026 -6.534131,-14.594389 -14.594389,-14.594389 z m 0,2.432399 c 6.716883,0 12.161991,5.445107 12.161991,12.16199 0,6.716883 -5.445108,12.161991 -12.161991,12.161991 -6.716883,0 -12.161991,-5.445108 -12.161991,-12.161991 0,-6.716883 5.445108,-12.16199 12.161991,-12.16199 z m -2.432398,2.432397 v 9.729593 2.432398 h 12.161991 v -2.432398 h -9.729593 v -9.729593 z"
         class="ColorScheme-Text"
         id="path1-7" /></g></g></svg>
