<?xml version="1.0" encoding="UTF-8"?>
<svg xmlns="http://www.w3.org/2000/svg" xmlns:xlink="http://www.w3.org/1999/xlink" width="64" height="64" viewBox="0 0 64 64">
<path fill="none" stroke-width="1.3125" stroke-linecap="butt" stroke-linejoin="miter" stroke="rgb(13.72549%, 14.901961%, 16.078431%)" stroke-opacity="1" stroke-miterlimit="4" d="M 4.71875 1 L 4.71875 15 " transform="matrix(4, 0, 0, 4, 0, 0)"/>
<path fill="none" stroke-width="1.3125" stroke-linecap="butt" stroke-linejoin="miter" stroke="rgb(13.72549%, 14.901961%, 16.078431%)" stroke-opacity="1" stroke-miterlimit="4" d="M 15 4.71875 L 1 4.71875 " transform="matrix(4, 0, 0, 4, 0, 0)"/>
<path fill="none" stroke-width="1.3125" stroke-linecap="butt" stroke-linejoin="miter" stroke="rgb(13.72549%, 14.901961%, 16.078431%)" stroke-opacity="1" stroke-miterlimit="4" d="M 11.28125 1 L 11.28125 15 " transform="matrix(4, 0, 0, 4, 0, 0)"/>
<path fill="none" stroke-width="1.3125" stroke-linecap="butt" stroke-linejoin="miter" stroke="rgb(13.72549%, 14.901961%, 16.078431%)" stroke-opacity="1" stroke-miterlimit="4" d="M 15 11.28125 L 1 11.28125 " transform="matrix(4, 0, 0, 4, 0, 0)"/>
<path fill="none" stroke-width="1.3125" stroke-linecap="butt" stroke-linejoin="miter" stroke="rgb(85.490196%, 26.666667%, 32.54902%)" stroke-opacity="1" stroke-miterlimit="4" d="M 4.71875 4.0625 L 4.71875 11.9375 " transform="matrix(4, 0, 0, 4, 0, 0)"/>
<path fill="none" stroke-width="1.3125" stroke-linecap="butt" stroke-linejoin="miter" stroke="rgb(85.490196%, 26.666667%, 32.54902%)" stroke-opacity="1" stroke-miterlimit="4" d="M 11.9375 4.71875 L 4.0625 4.71875 " transform="matrix(4, 0, 0, 4, 0, 0)"/>
<path fill="none" stroke-width="1.3125" stroke-linecap="butt" stroke-linejoin="miter" stroke="rgb(85.490196%, 26.666667%, 32.54902%)" stroke-opacity="1" stroke-miterlimit="4" d="M 11.28125 4.0625 L 11.28125 11.9375 " transform="matrix(4, 0, 0, 4, 0, 0)"/>
<path fill="none" stroke-width="1.3125" stroke-linecap="butt" stroke-linejoin="miter" stroke="rgb(85.490196%, 26.666667%, 32.54902%)" stroke-opacity="1" stroke-miterlimit="4" d="M 11.9375 11.28125 L 4.0625 11.28125 " transform="matrix(4, 0, 0, 4, 0, 0)"/>
</svg>
