<?xml version="1.0" encoding="UTF-8"?>
<svg xmlns="http://www.w3.org/2000/svg" xmlns:xlink="http://www.w3.org/1999/xlink" width="64" height="64" viewBox="0 0 64 64">
<path fill-rule="nonzero" fill="rgb(13.72549%, 14.901961%, 16.078431%)" fill-opacity="1" d="M 8 8 L 8 56 L 28 56 L 28 52 L 20 52 L 20 40 L 32 40 L 32 36 L 15.875 36 L 15.875 52 L 12 52 L 12 12 L 20 12 L 20 28 L 44 28 L 44 12 L 45.125 12 L 52 18.875 L 52 28 L 56 28 L 56 17.125 L 46.875 8 Z M 24 12 L 31.625 12 L 31.625 24 L 24 24 Z M 24 12 "/>
<path fill-rule="nonzero" fill="rgb(0%, 69.803922%, 100%)" fill-opacity="1" d="M 48.941406 34.449219 L 45.886719 37.507812 L 52.890625 44.511719 L 32.769531 44.511719 L 32.769531 48.832031 L 52.890625 48.832031 L 45.886719 55.835938 L 48.941406 58.890625 L 61.160156 46.671875 Z M 48.941406 34.449219 "/>
</svg>
