<?xml version="1.0" encoding="UTF-8"?>
<svg xmlns="http://www.w3.org/2000/svg" xmlns:xlink="http://www.w3.org/1999/xlink" width="64" height="64" viewBox="0 0 64 64">
<path fill="none" stroke-width="1.4" stroke-linecap="round" stroke-linejoin="bevel" stroke="rgb(23.921569%, 68.235294%, 91.372549%)" stroke-opacity="1" stroke-miterlimit="4" d="M 1.771118 19.855591 L 4.660767 8.855591 L 14.029297 10.813354 L 20.089233 1.818115 " transform="matrix(2.909091, 0, 0, 2.909091, 0, 0)"/>
<path fill-rule="nonzero" fill="rgb(13.72549%, 14.901961%, 16.078431%)" fill-opacity="1" d="M 0.753906 57.578125 L 9.480469 57.578125 L 9.480469 60.488281 L 0.753906 60.488281 Z M 0.753906 57.578125 "/>
<path fill-rule="nonzero" fill="rgb(13.72549%, 14.901961%, 16.078431%)" fill-opacity="1" d="M 3.664062 63.398438 L 3.664062 54.671875 L 6.574219 54.671875 L 6.574219 63.398438 Z M 3.664062 63.398438 "/>
<path fill-rule="nonzero" fill="rgb(13.72549%, 14.901961%, 16.078431%)" fill-opacity="1" d="M 9.398438 24.578125 L 18.125 24.578125 L 18.125 27.488281 L 9.398438 27.488281 Z M 9.398438 24.578125 "/>
<path fill-rule="nonzero" fill="rgb(13.72549%, 14.901961%, 16.078431%)" fill-opacity="1" d="M 12.308594 30.398438 L 12.308594 21.671875 L 15.21875 21.671875 L 15.21875 30.398438 Z M 12.308594 30.398438 "/>
<path fill-rule="nonzero" fill="rgb(13.72549%, 14.901961%, 16.078431%)" fill-opacity="1" d="M 54.347656 3.914062 L 63.074219 3.914062 L 63.074219 6.824219 L 54.347656 6.824219 Z M 54.347656 3.914062 "/>
<path fill-rule="nonzero" fill="rgb(13.72549%, 14.901961%, 16.078431%)" fill-opacity="1" d="M 57.257812 9.730469 L 57.257812 1.003906 L 60.167969 1.003906 L 60.167969 9.730469 Z M 57.257812 9.730469 "/>
<path fill-rule="nonzero" fill="rgb(13.72549%, 14.901961%, 16.078431%)" fill-opacity="1" d="M 36.3125 30.140625 L 45.042969 30.140625 L 45.042969 33.046875 L 36.3125 33.046875 Z M 36.3125 30.140625 "/>
<path fill-rule="nonzero" fill="rgb(13.72549%, 14.901961%, 16.078431%)" fill-opacity="1" d="M 39.222656 35.957031 L 39.222656 27.230469 L 42.132812 27.230469 L 42.132812 35.957031 Z M 39.222656 35.957031 "/>
</svg>
