<?xml version="1.0" encoding="UTF-8"?>
<svg xmlns="http://www.w3.org/2000/svg" xmlns:xlink="http://www.w3.org/1999/xlink" width="64" height="64" viewBox="0 0 64 64">
<path fill-rule="nonzero" fill="rgb(13.72549%, 14.901961%, 16.078431%)" fill-opacity="1" d="M 48.332031 11 C 54.777344 11 60 16.222656 60 22.667969 C 60 29.109375 54.777344 34.332031 48.332031 34.332031 L 15.667969 34.332031 C 11.800781 34.332031 8.667969 37.46875 8.667969 41.332031 C 8.667969 45.199219 11.800781 48.332031 15.667969 48.332031 L 50.667969 48.332031 L 50.667969 53 L 15.667969 53 C 9.222656 53 4 47.777344 4 41.332031 C 4 34.890625 9.222656 29.667969 15.667969 29.667969 L 48.332031 29.667969 C 52.199219 29.667969 55.332031 26.53125 55.332031 22.667969 C 55.332031 18.800781 52.199219 15.667969 48.332031 15.667969 L 13.332031 15.667969 L 13.332031 11 Z M 48.332031 11 "/>
<path fill-rule="nonzero" fill="rgb(23.921569%, 68.235294%, 91.372549%)" fill-opacity="1" d="M 11 6.332031 C 14.867188 6.332031 18 9.46875 18 13.332031 C 18 17.199219 14.867188 20.332031 11 20.332031 C 7.132812 20.332031 4 17.199219 4 13.332031 C 4 9.46875 7.132812 6.332031 11 6.332031 Z M 11 11 C 9.710938 11 8.667969 12.042969 8.667969 13.332031 C 8.667969 14.621094 9.710938 15.667969 11 15.667969 C 12.289062 15.667969 13.332031 14.621094 13.332031 13.332031 C 13.332031 12.042969 12.289062 11 11 11 Z M 53 43.667969 C 56.867188 43.667969 60 46.800781 60 50.667969 C 60 54.53125 56.867188 57.667969 53 57.667969 C 49.132812 57.667969 46 54.53125 46 50.667969 C 46 46.800781 49.132812 43.667969 53 43.667969 Z M 53 48.332031 C 51.710938 48.332031 50.667969 49.378906 50.667969 50.667969 C 50.667969 51.957031 51.710938 53 53 53 C 54.289062 53 55.332031 51.957031 55.332031 50.667969 C 55.332031 49.378906 54.289062 48.332031 53 48.332031 Z M 53 48.332031 "/>
</svg>
