<?xml version="1.0" encoding="UTF-8"?>
<svg xmlns="http://www.w3.org/2000/svg" xmlns:xlink="http://www.w3.org/1999/xlink" width="64" height="64" viewBox="0 0 64 64">
<path fill-rule="nonzero" fill="rgb(13.72549%, 14.901961%, 16.078431%)" fill-opacity="1" d="M 11.007812 48.328125 C 11.007812 54.769531 16.226562 59.992188 22.667969 59.992188 C 29.109375 59.992188 34.332031 54.769531 34.332031 48.328125 L 34.332031 15.671875 C 34.332031 11.808594 37.464844 8.675781 41.332031 8.675781 C 45.195312 8.675781 48.328125 11.808594 48.328125 15.671875 L 48.328125 50.660156 L 52.992188 50.660156 L 52.992188 15.671875 C 52.992188 9.230469 47.773438 4.007812 41.332031 4.007812 C 34.890625 4.007812 29.667969 9.230469 29.667969 15.671875 L 29.667969 48.328125 C 29.667969 52.191406 26.535156 55.324219 22.667969 55.324219 C 18.804688 55.324219 15.671875 52.191406 15.671875 48.328125 L 15.671875 13.339844 L 11.007812 13.339844 Z M 11.007812 48.328125 "/>
<path fill-rule="nonzero" fill="rgb(23.921569%, 68.235294%, 91.372549%)" fill-opacity="1" d="M 6.339844 11.007812 C 6.339844 14.871094 9.476562 18.003906 13.339844 18.003906 C 17.203125 18.003906 20.335938 14.871094 20.335938 11.007812 C 20.335938 7.140625 17.203125 4.007812 13.339844 4.007812 C 9.476562 4.007812 6.339844 7.140625 6.339844 11.007812 Z M 11.007812 11.007812 C 11.007812 9.71875 12.050781 8.675781 13.339844 8.675781 C 14.628906 8.675781 15.671875 9.71875 15.671875 11.007812 C 15.671875 12.296875 14.628906 13.339844 13.339844 13.339844 C 12.050781 13.339844 11.007812 12.296875 11.007812 11.007812 Z M 43.664062 52.992188 C 43.664062 56.859375 46.796875 59.992188 50.660156 59.992188 C 54.523438 59.992188 57.660156 56.859375 57.660156 52.992188 C 57.660156 49.128906 54.523438 45.996094 50.660156 45.996094 C 46.796875 45.996094 43.664062 49.128906 43.664062 52.992188 Z M 48.328125 52.992188 C 48.328125 51.703125 49.371094 50.660156 50.660156 50.660156 C 51.949219 50.660156 52.992188 51.703125 52.992188 52.992188 C 52.992188 54.28125 51.949219 55.324219 50.660156 55.324219 C 49.371094 55.324219 48.328125 54.28125 48.328125 52.992188 Z M 48.328125 52.992188 "/>
</svg>
