<?xml version="1.0" encoding="UTF-8" standalone="no"?>
<svg
   xmlns:dc="http://purl.org/dc/elements/1.1/"
   xmlns:cc="http://creativecommons.org/ns#"
   xmlns:rdf="http://www.w3.org/1999/02/22-rdf-syntax-ns#"
   xmlns:svg="http://www.w3.org/2000/svg"
   xmlns="http://www.w3.org/2000/svg"
   xmlns:sodipodi="http://sodipodi.sourceforge.net/DTD/sodipodi-0.dtd"
   xmlns:inkscape="http://www.inkscape.org/namespaces/inkscape"
   viewBox="0 0 16 16"
   version="1.1"
   id="svg8"
   sodipodi:docname="nav_vertical.svg"
   inkscape:version="0.92.4 5da689c313, 2019-01-14">
  <metadata
     id="metadata12">
    <rdf:RDF>
      <cc:Work
         rdf:about="">
        <dc:format>image/svg+xml</dc:format>
        <dc:type
           rdf:resource="http://purl.org/dc/dcmitype/StillImage" />
      </cc:Work>
    </rdf:RDF>
  </metadata>
  <sodipodi:namedview
     pagecolor="#ffffff"
     bordercolor="#666666"
     borderopacity="1"
     objecttolerance="10"
     gridtolerance="10"
     guidetolerance="10"
     inkscape:pageopacity="0"
     inkscape:pageshadow="2"
     inkscape:window-width="2560"
     inkscape:window-height="1406"
     id="namedview10"
     showgrid="false"
     inkscape:zoom="29.5"
     inkscape:cx="7.0150952"
     inkscape:cy="8.9809548"
     inkscape:window-x="0"
     inkscape:window-y="34"
     inkscape:window-maximized="1"
     inkscape:current-layer="svg8" />
  <defs
     id="defs3051">
    <style
       type="text/css"
       id="current-color-scheme">
      .ColorScheme-Text {
        color:#232629;
      }
      .ColorScheme-Highlight {
        color:#3daee9;
      }
      </style>
  </defs>
  <path
     style="color:#232629;fill:currentColor;fill-opacity:1;stroke:none;stroke-width:0.99999982"
     d="m 2.7517093,12.082007 a 2.9157321,2.91571 0 0 0 2.9157174,2.915714 2.9157321,2.91571 0 0 0 2.9157176,-2.915714 V 3.9179966 a 1.7494392,1.7494262 0 0 1 1.7494307,-1.7494308 1.7494392,1.7494262 0 0 1 1.74943,1.7494308 v 8.7471494 h 1.166286 V 3.9179966 A 2.9157321,2.91571 0 0 0 10.332575,1.002279 2.9157321,2.91571 0 0 0 7.4168573,3.9179966 v 8.1640104 a 1.7494392,1.7494262 0 0 1 -1.7494306,1.74943 1.7494392,1.7494262 0 0 1 -1.7494302,-1.74943 V 3.334853 H 2.7517093 Z"
     class="ColorScheme-Text"
     id="path4"
     inkscape:connector-curvature="0" />
  <path
     style="color:#3daee9;fill:currentColor;fill-opacity:1;stroke:none;stroke-width:0.99999982"
     d="m 1.5854214,2.7517084 a 1.7494301,1.7494301 0 0 0 1.7494302,1.74943 1.7494301,1.7494301 0 0 0 1.7494307,-1.74943 A 1.7494301,1.7494301 0 0 0 3.3348516,1.0022777 1.7494301,1.7494301 0 0 0 1.5854214,2.7517084 Z m 1.1662868,0 A 0.5831446,0.58314374 0 0 1 3.3348516,2.1685649 0.5831446,0.58314374 0 0 1 3.9179954,2.7517084 0.5831446,0.58314374 0 0 1 3.3348516,3.3348517 0.5831446,0.58314374 0 0 1 2.7517082,2.7517084 Z M 10.915718,13.24829 a 1.7494301,1.7494301 0 0 0 1.749432,1.749432 1.7494301,1.7494301 0 0 0 1.749429,-1.749432 1.7494301,1.7494301 0 0 0 -1.749429,-1.749431 1.7494301,1.7494301 0 0 0 -1.749432,1.749431 z m 1.166286,0 a 0.5831446,0.58314374 0 0 1 0.583146,-0.583142 0.5831446,0.58314374 0 0 1 0.58314,0.583142 0.5831446,0.58314374 0 0 1 -0.58314,0.583139 0.5831446,0.58314374 0 0 1 -0.583146,-0.583139 z"
     class="ColorScheme-Highlight"
     id="path6"
     inkscape:connector-curvature="0" />
</svg>
