<?xml version="1.0" encoding="UTF-8"?>
<svg xmlns="http://www.w3.org/2000/svg" xmlns:xlink="http://www.w3.org/1999/xlink" width="64" height="64" viewBox="0 0 64 64">
<path fill-rule="nonzero" fill="rgb(13.72549%, 14.901961%, 16.078431%)" fill-opacity="1" d="M 4 4 L 4 27.332031 L 27.332031 27.332031 L 27.332031 4 Z M 36.667969 4 L 36.667969 27.332031 L 60 27.332031 L 60 4 Z M 8.667969 8.667969 L 22.667969 8.667969 L 22.667969 22.667969 L 8.667969 22.667969 Z M 41.332031 8.667969 L 55.332031 8.667969 L 55.332031 22.667969 L 41.332031 22.667969 Z M 4 36.667969 L 4 60 L 27.332031 60 L 27.332031 36.667969 Z M 8.667969 41.332031 L 22.667969 41.332031 L 22.667969 55.332031 L 8.667969 55.332031 Z M 8.667969 41.332031 "/>
<path fill-rule="nonzero" fill="rgb(23.921569%, 68.235294%, 91.372549%)" fill-opacity="1" d="M 36.667969 36.667969 L 36.667969 60 L 60 60 L 60 36.667969 Z M 41.332031 41.332031 L 55.332031 41.332031 L 55.332031 55.332031 L 41.332031 55.332031 Z M 41.332031 41.332031 "/>
</svg>
