<?xml version="1.0" encoding="UTF-8"?>
<svg xmlns="http://www.w3.org/2000/svg" xmlns:xlink="http://www.w3.org/1999/xlink" width="64" height="64" viewBox="0 0 64 64">
<path fill-rule="nonzero" fill="rgb(13.72549%, 14.901961%, 16.078431%)" fill-opacity="1" d="M 32 8 C 18.742188 8 8 18.742188 8 32 C 8 45.257812 18.742188 56 32 56 C 39.101562 56 45.457031 52.898438 49.851562 48 L 43.851562 48 C 40.527344 50.472656 36.464844 52 32 52 C 20.957031 52 12 43.042969 12 32 C 12 20.957031 20.957031 12 32 12 C 43.042969 12 52 20.957031 52 32 C 52 33.367188 51.863281 34.707031 51.601562 36 L 55.640625 36 C 55.859375 34.695312 56 33.367188 56 32 C 56 18.742188 45.257812 8 32 8 M 28 16 L 28 36 L 48 36 L 48 32 L 32 32 L 32 16 Z M 28 16 "/>
<path fill-rule="nonzero" fill="rgb(23.921569%, 68.235294%, 91.372549%)" fill-opacity="1" d="M 40 40 L 40 44 L 48 44 C 50.210938 44 52 45.789062 52 48 C 52 50.210938 50.210938 52 48 52 L 48 56 C 52.417969 56 56 52.417969 56 48 C 56 43.582031 52.417969 40 48 40 Z M 40 40 "/>
</svg>
