<?xml version="1.0" encoding="UTF-8"?>
<svg xmlns="http://www.w3.org/2000/svg" xmlns:xlink="http://www.w3.org/1999/xlink" width="64" height="64" viewBox="0 0 64 64">
<path fill-rule="nonzero" fill="rgb(100%, 100%, 100%)" fill-opacity="1" d="M 4.898438 10.222656 L 58.414062 10.222656 L 58.414062 53.375 L 4.898438 53.375 Z M 4.898438 10.222656 "/>
<path fill-rule="nonzero" fill="rgb(16.470588%, 63.137255%, 59.607843%)" fill-opacity="1" d="M 34.175781 38.835938 C 35.097656 42.8125 31.453125 47.019531 24.730469 47.992188 C 18.007812 48.964844 15.570312 39.417969 14.84375 34.347656 C 14.441406 31.53125 13.949219 25.335938 18.128906 22.398438 C 22.15625 19.566406 25.289062 21.929688 25.917969 23.140625 C 27.050781 25.328125 25.957031 27.898438 27.050781 30.300781 C 28.558594 33.613281 33.257812 34.859375 34.175781 38.835938 Z M 34.175781 38.835938 "/>
<path fill-rule="nonzero" fill="rgb(70.980392%, 53.72549%, 0%)" fill-opacity="1" d="M 28.367188 18.230469 C 28.800781 15.96875 31.539062 14.441406 35.085938 15.191406 C 38.628906 15.941406 37.707031 21.414062 36.933594 24.214844 C 36.503906 25.769531 35.363281 29.117188 32.640625 29.875 C 30.015625 30.609375 28.992188 28.78125 28.949219 28.027344 C 28.878906 26.664062 29.992188 25.519531 29.988281 24.050781 C 29.980469 22.027344 27.933594 20.492188 28.367188 18.230469 Z M 28.367188 18.230469 "/>
<path fill-rule="nonzero" fill="rgb(13.72549%, 14.901961%, 16.078431%)" fill-opacity="1" d="M 2.910156 8.363281 L 2.910156 55.636719 L 61.089844 55.636719 L 61.089844 8.363281 L 2.910156 8.363281 M 6.546875 11.316406 L 57.453125 11.316406 L 57.453125 52.683594 L 6.546875 52.683594 L 6.546875 11.316406 "/>
<path fill-rule="nonzero" fill="rgb(82.745098%, 21.176471%, 50.980392%)" fill-opacity="1" d="M 47.34375 34.128906 C 47.34375 37.230469 44.828125 39.746094 41.726562 39.746094 C 38.621094 39.746094 36.105469 37.230469 36.105469 34.128906 C 36.105469 31.023438 38.621094 28.507812 41.726562 28.507812 C 44.828125 28.507812 47.34375 31.023438 47.34375 34.128906 Z M 47.34375 34.128906 "/>
</svg>
