<?xml version="1.0" encoding="UTF-8" standalone="no"?>
<svg
   width="64"
   height="64"
   viewBox="0 0 64 64"
   version="1.1"
   id="svg2"
   sodipodi:docname="aaaa.svg"
   xml:space="preserve"
   inkscape:version="1.4.2 (ebf0e940d0, 2025-05-08)"
   xmlns:inkscape="http://www.inkscape.org/namespaces/inkscape"
   xmlns:sodipodi="http://sodipodi.sourceforge.net/DTD/sodipodi-0.dtd"
   xmlns="http://www.w3.org/2000/svg"
   xmlns:svg="http://www.w3.org/2000/svg"><defs
     id="defs2" /><sodipodi:namedview
     id="namedview2"
     pagecolor="#ffffff"
     bordercolor="#000000"
     borderopacity="0.25"
     inkscape:showpageshadow="2"
     inkscape:pageopacity="0.0"
     inkscape:pagecheckerboard="0"
     inkscape:deskcolor="#d1d1d1"
     inkscape:zoom="7.8984376"
     inkscape:cx="36.272997"
     inkscape:cy="31.968348"
     inkscape:window-width="1558"
     inkscape:window-height="1151"
     inkscape:window-x="0"
     inkscape:window-y="0"
     inkscape:window-maximized="0"
     inkscape:current-layer="svg2" /><path
     style="baseline-shift:baseline;display:inline;overflow:visible;opacity:1;fill:#ff00ff;stroke-width:1;stroke-dasharray:none;enable-background:accumulate;stop-color:#000000;stop-opacity:1"
     d="m 32,14.5 c -9.634562,0 -17.5,7.86544 -17.5,17.5 0,9.63456 7.865438,17.5 17.5,17.5 9.634562,0 17.5,-7.865439 17.5,-17.5 0,-9.63456 -7.865439,-17.5 -17.5,-17.5 z m 0,5.09375 c 6.881515,0 12.40625,5.524738 12.40625,12.40625 0,6.881513 -5.524736,12.40625 -12.40625,12.40625 -6.881514,0 -12.40625,-5.524738 -12.40625,-12.40625 0,-6.881512 5.524736,-12.40625 12.40625,-12.40625 z"
     id="path1"
     sodipodi:nodetypes="ssssssssss" /><path
     fill-rule="nonzero"
     fill="rgb(0%, 0%, 0%)"
     fill-opacity="1"
     d="M 4,4 V 18 H 8.6666667 V 8.6666667 H 18 V 4 Z m 42,0 v 4.6666667 h 9.333333 V 18 H 60 V 4 Z M 4,46 V 60 H 18 V 55.333333 H 8.6666667 V 46 Z m 51.333333,0 v 9.333333 H 46 V 60 H 60 V 46 Z"
     id="path2"
     style="fill:#232629;fill-opacity:1;stroke-width:1;stroke-dasharray:none"
     sodipodi:nodetypes="cccccccccccccccccccccccccccc" /></svg>
