<?xml version="1.0" encoding="UTF-8"?>
<svg xmlns="http://www.w3.org/2000/svg" xmlns:xlink="http://www.w3.org/1999/xlink" width="64" height="64" viewBox="0 0 64 64">
<path fill-rule="nonzero" fill="rgb(100%, 100%, 100%)" fill-opacity="1" d="M 5.003906 10.617188 L 58.75 10.617188 L 58.75 54.429688 L 5.003906 54.429688 Z M 5.003906 10.617188 "/>
<path fill-rule="nonzero" fill="rgb(81.176471%, 0%, 5.882353%)" fill-opacity="1" d="M 12.097656 16.191406 L 12.097656 25.054688 L 15.734375 25.054688 L 15.734375 19.144531 L 23.007812 19.144531 L 23.007812 16.191406 L 12.097656 16.191406 M 40.992188 16.191406 L 40.992188 19.144531 L 48.265625 19.144531 L 48.265625 25.054688 L 51.902344 25.054688 L 51.902344 16.191406 L 40.992188 16.191406 M 12.097656 38.945312 L 12.097656 47.808594 L 23.007812 47.808594 L 23.007812 44.855469 L 15.734375 44.855469 L 15.734375 38.945312 L 12.097656 38.945312 M 48.265625 38.945312 L 48.265625 44.855469 L 40.992188 44.855469 L 40.992188 47.808594 L 51.902344 47.808594 L 51.902344 38.945312 L 48.265625 38.945312 "/>
<path fill-rule="nonzero" fill="rgb(13.72549%, 14.901961%, 16.078431%)" fill-opacity="1" d="M 2.910156 8.363281 L 2.910156 55.636719 L 61.089844 55.636719 L 61.089844 8.363281 L 2.910156 8.363281 M 6.546875 11.316406 L 57.453125 11.316406 L 57.453125 52.683594 L 6.546875 52.683594 L 6.546875 11.316406 "/>
</svg>
