<?xml version="1.0" encoding="UTF-8"?>
<svg xmlns="http://www.w3.org/2000/svg" xmlns:xlink="http://www.w3.org/1999/xlink" width="64" height="64" viewBox="0 0 64 64">
<path fill-rule="nonzero" fill="rgb(13.72549%, 14.901961%, 16.078431%)" fill-opacity="1" d="M 32 12 C 18.878906 12.019531 6.808594 19.171875 0.492188 30.671875 C 1.007812 32.128906 1.921875 33.378906 3.117188 34.304688 C 8.40625 23.140625 19.644531 16.015625 32 16 C 23.164062 16 16 23.164062 16 32 C 16 40.835938 23.164062 48 32 48 C 40.835938 48 48 40.835938 48 32 C 47.996094 23.710938 41.65625 16.796875 33.398438 16.070312 C 45.226562 16.59375 55.800781 23.609375 60.882812 34.304688 C 62.089844 33.371094 63.011719 32.105469 63.523438 30.632812 C 57.195312 19.144531 45.117188 12.003906 32 12 Z M 32 20 C 38.628906 20 44 25.371094 44 32 C 44 38.628906 38.628906 44 32 44 C 25.371094 44 20 38.628906 20 32 C 20 25.371094 25.371094 20 32 20 Z M 32 24 C 27.582031 24 24 27.582031 24 32 C 24 36.417969 27.582031 40 32 40 C 36.417969 40 40 36.417969 40 32 C 40 31.203125 39.875 30.410156 39.640625 29.648438 C 38.992188 31.078125 37.570312 32 36 32 C 33.789062 32 32 30.210938 32 28 C 32.003906 26.429688 32.925781 25.003906 34.359375 24.359375 C 33.59375 24.121094 32.800781 24 32 24 Z M 32 24 "/>
</svg>
