<?xml version="1.0" encoding="UTF-8"?>
<svg xmlns="http://www.w3.org/2000/svg" xmlns:xlink="http://www.w3.org/1999/xlink" width="64" height="64" viewBox="0 0 64 64">
<path fill-rule="nonzero" fill="rgb(13.72549%, 14.901961%, 16.078431%)" fill-opacity="1" d="M 32 8 C 18.746094 8 8 18.746094 8 32 C 8 45.253906 18.746094 56 32 56 C 37.316406 55.980469 42.480469 54.195312 46.671875 50.921875 L 54.867188 59.117188 C 55.429688 59.683594 56.195312 60 56.992188 60 C 57.789062 60 58.554688 59.683594 59.117188 59.117188 C 59.683594 58.554688 60 57.789062 60 56.992188 C 60 56.195312 59.683594 55.429688 59.117188 54.867188 L 50.921875 46.671875 C 54.195312 42.480469 55.980469 37.316406 56 32 C 56 18.746094 45.253906 8 32 8 Z M 32 12 C 43.046875 12 52 20.953125 52 32 C 52 43.046875 43.046875 52 32 52 C 20.953125 52 12 43.046875 12 32 C 12 20.953125 20.953125 12 32 12 Z M 20 20 L 20 44 L 44 44 L 44 20 Z M 24 24 L 40 24 L 40 40 L 24 40 Z M 24 24 "/>
</svg>
