<?xml version="1.0" encoding="UTF-8" standalone="no"?>
<svg
   width="128"
   height="128"
   viewBox="0 0 128 128"
   version="1.1"
   id="svg21"
   sodipodi:docname="thrase.svg"
   inkscape:version="1.4.2 (ebf0e940d0, 2025-05-08)"
   xml:space="preserve"
   xmlns:inkscape="http://www.inkscape.org/namespaces/inkscape"
   xmlns:sodipodi="http://sodipodi.sourceforge.net/DTD/sodipodi-0.dtd"
   xmlns="http://www.w3.org/2000/svg"
   xmlns:svg="http://www.w3.org/2000/svg"><defs
     id="defs21" /><sodipodi:namedview
     id="namedview21"
     pagecolor="#ffffff"
     bordercolor="#000000"
     borderopacity="0.25"
     inkscape:showpageshadow="2"
     inkscape:pageopacity="0.0"
     inkscape:pagecheckerboard="0"
     inkscape:deskcolor="#d1d1d1"
     inkscape:zoom="0.70710678"
     inkscape:cx="-253.85133"
     inkscape:cy="-214.25335"
     inkscape:window-width="2259"
     inkscape:window-height="1213"
     inkscape:window-x="0"
     inkscape:window-y="0"
     inkscape:window-maximized="1"
     inkscape:current-layer="svg21" /><path
     d="m 0,46 v 82 H 82 V 46 Z m 4.7665551,4.766555 H 25.745117 V 71.745117 H 4.7665551 Z m 25.7451169,0 H 51.488328 V 71.745117 H 30.511672 Z m 25.743211,0 H 77.233444 V 71.745117 H 56.254883 Z M 4.7665551,76.511672 H 25.745117 V 97.488328 H 4.7665551 Z m 25.7451169,0 H 51.488328 V 97.488328 H 30.511672 Z m 25.743211,0 H 77.233444 V 97.488328 H 56.254883 Z M 4.7665551,102.25488 H 25.745117 v 20.97857 H 4.7665551 Z m 25.7451169,0 h 20.976656 v 20.97857 H 30.511672 Z m 25.743211,0 h 20.978561 v 20.97857 H 56.254883 Z"
     style="fill:#363b44;stroke-width:9.22486;stroke-linecap:round;stroke-linejoin:bevel"
     id="path22" /><path
     d="M 4.7665551,50.766555 V 71.745117 H 25.745117 V 50.766555 Z"
     style="fill:#afe9af;stroke-width:6.65692"
     id="path17" /><path
     d="M 30.511672,50.766555 V 71.745117 H 51.488328 V 50.766555 Z"
     style="fill:#e9eceb;stroke-width:6.65692"
     id="path15" /><path
     d="M 56.254883,50.766555 V 71.745117 H 77.233444 V 50.766555 Z"
     style="fill:#ffffff;fill-opacity:0.973333;stroke-width:6.65692"
     id="path13" /><path
     d="M 4.7665551,76.511672 V 97.488328 H 25.745117 V 76.511672 Z"
     style="fill:#afdde9;stroke-width:6.65743"
     id="path11" /><path
     d="M 30.511672,76.511672 V 97.488328 H 51.488328 V 76.511672 Z"
     style="fill:#ffd83c;stroke-width:6.65743;fill-opacity:1"
     id="path9" /><path
     d="M 56.254883,76.511672 V 97.488328 H 77.233444 V 76.511672 Z"
     style="fill:#e9eceb;stroke-width:6.65743"
     id="path7" /><path
     d="m 4.7665551,102.25488 v 20.97857 H 25.745117 v -20.97857 z"
     style="fill:#afdde9;stroke-width:6.65743"
     id="path5" /><path
     d="m 30.511672,102.25488 v 20.97857 h 20.976656 v -20.97857 z"
     style="fill:#afe9af;stroke-width:6.65743"
     id="path3" /><path
     d="m 56.254883,102.25488 v 20.97857 h 20.978561 v -20.97857 z"
     style="fill:#afe9af;stroke-width:6.65743"
     id="path1" /><path
     fill="none"
     stroke-width="1.51342"
     stroke-linecap="round"
     stroke-linejoin="round"
     stroke="rgb(100%, 100%, 100%)"
     stroke-opacity="1"
     stroke-miterlimit="4.6"
     d="M -99.529718 651.304599 L -68.230769 651.302777 C -65.094827 651.302854 -62.553844 653.846339 -62.554158 656.981982 L -62.55283 661.32724 C -62.553144 664.462882 -65.094629 667.005862 -68.230571 667.005784 L -99.529411 667.004851 C -102.665352 667.004774 -105.207768 664.46267 -105.207453 661.327027 L -105.208781 656.981769 C -105.208467 653.846127 -102.66566 651.304521 -99.529718 651.304599 Z M -99.529718 651.304599 "
     transform="matrix(1.422483, -1.415079, 1.473874, 1.361471, -771.978535, -970.781682)"
     id="path19" /><path
     d="M 99.064453,9.0839844 C 96.088379,9.1381835 93.132812,10.28125 90.902344,12.5 L 46.382812,56.792969 c -4.460937,4.4375 -4.332031,11.496093 0.289063,15.765625 l 6.40625,5.914062 c 4.621094,4.269532 11.984375,4.132813 16.445312,-0.304687 L 114.04688,33.878906 c 4.46093,-4.4375 4.32812,-11.496094 -0.29297,-15.765625 l -6.40625,-5.914062 c -2.31055,-2.134766 -5.30713,-3.1694337 -8.283207,-3.1152346 z"
     style="fill:#f9f6c8;fill-opacity:1"
     id="path23" /><path
     fill-rule="nonzero"
     fill="rgb(20%, 20%, 20%)"
     fill-opacity="1"
     d="M 100.671875 0 L 41.128906 59.542969 L 41.128906 86.871094 L 68.457031 86.871094 L 128 27.328125 Z M 89.308594 22.300781 L 105.699219 38.691406 L 81.617188 62.789062 L 81.617188 57.660156 L 73.925781 57.824219 L 66.070312 57.824219 L 66.070312 45.523438 L 77.007812 34.597656 Z M 58.378906 53.214844 L 58.378906 65.515625 L 73.761719 65.515625 L 73.921875 70.464844 L 65.726562 78.675781 L 54.789062 78.675781 L 49.320312 73.207031 L 49.320312 62.269531 Z M 58.378906 53.214844 "
     id="path21" /></svg>
